<svg xmlns="http://www.w3.org/2000/svg" viewBox="0 0 24 24" id="Interface-Essential-Message--Streamline-Pixel" height="24" width="24">
  <g>
    <path d="M22.28625 6.285h1.1400000000000001v9.1425h-1.1400000000000001Z" fill="#000000" stroke-width="0.75"></path>
    <path d="M21.146250000000002 15.4275h1.1400000000000001v1.1400000000000001h-1.1400000000000001Z" fill="#000000" stroke-width="0.75"></path>
    <path d="M21.146250000000002 5.1450000000000005h1.1400000000000001v1.1400000000000001h-1.1400000000000001Z" fill="#000000" stroke-width="0.75"></path>
    <path d="M19.99875 16.5675h1.1475v1.1475h-1.1475Z" fill="#000000" stroke-width="0.75"></path>
    <path d="M19.99875 3.9975h1.1475v1.1475h-1.1475Z" fill="#000000" stroke-width="0.75"></path>
    <path d="M18.85875 17.715h1.1400000000000001v1.1400000000000001h-1.1400000000000001Z" fill="#000000" stroke-width="0.75"></path>
    <path d="M18.85875 2.8575h1.1400000000000001v1.1400000000000001h-1.1400000000000001Z" fill="#000000" stroke-width="0.75"></path>
    <path d="M17.71125 18.855h1.1475v1.1400000000000001h-1.1475Z" fill="#000000" stroke-width="0.75"></path>
    <path d="M16.57125 9.712499999999999h2.2874999999999996V12h-2.2874999999999996Z" fill="#000000" stroke-width="0.75"></path>
    <path d="M16.57125 1.71h2.2874999999999996v1.1475h-2.2874999999999996Z" fill="#000000" stroke-width="0.75"></path>
    <path d="M15.431249999999999 19.995h2.2800000000000002v1.1475h-2.2800000000000002Z" fill="#000000" stroke-width="0.75"></path>
    <path d="M13.143749999999999 21.142500000000002h2.2874999999999996v1.1400000000000001h-2.2874999999999996Z" fill="#000000" stroke-width="0.75"></path>
    <path d="m5.14125 22.2825 0 -1.1400000000000001 -1.1400000000000001 0 0 1.1400000000000001 -1.1400000000000001 0 0 1.1475 10.2825 0 0 -1.1475 -8.0025 0z" fill="#000000" stroke-width="0.75"></path>
    <path d="M10.85625 9.712499999999999h2.2874999999999996V12h-2.2874999999999996Z" fill="#000000" stroke-width="0.75"></path>
    <path d="M8.568750000000001 0.5700000000000001h8.0025v1.1400000000000001h-8.0025Z" fill="#000000" stroke-width="0.75"></path>
    <path d="M6.28875 1.71h2.2800000000000002v1.1475h-2.2800000000000002Z" fill="#000000" stroke-width="0.75"></path>
    <path d="m6.28875 19.995 1.1400000000000001 0 0 -1.1400000000000001 -2.2874999999999996 0 0 2.2874999999999996 1.1475 0 0 -1.1475z" fill="#000000" stroke-width="0.75"></path>
    <path d="M5.14125 9.712499999999999h2.2874999999999996V12h-2.2874999999999996Z" fill="#000000" stroke-width="0.75"></path>
    <path d="M4.00125 2.8575h2.2874999999999996v1.1400000000000001h-2.2874999999999996Z" fill="#000000" stroke-width="0.75"></path>
    <path d="M4.00125 17.715h1.1400000000000001v1.1400000000000001h-1.1400000000000001Z" fill="#000000" stroke-width="0.75"></path>
    <path d="M2.86125 16.5675h1.1400000000000001v1.1475h-1.1400000000000001Z" fill="#000000" stroke-width="0.75"></path>
    <path d="M2.86125 3.9975h1.1400000000000001v1.1475h-1.1400000000000001Z" fill="#000000" stroke-width="0.75"></path>
    <path d="M1.71375 15.4275h1.1475v1.1400000000000001h-1.1475Z" fill="#000000" stroke-width="0.75"></path>
    <path d="M1.71375 5.1450000000000005h1.1475v1.1400000000000001h-1.1475Z" fill="#000000" stroke-width="0.75"></path>
    <path d="M0.57375 6.285h1.1400000000000001v9.1425H0.57375Z" fill="#000000" stroke-width="0.75"></path>
  </g>
</svg>