<svg xmlns="http://www.w3.org/2000/svg" viewBox="0 0 24 24" id="Logo-Discord--Streamline-Pixel" height="24" width="24">
  <desc>
    Logo Discord Streamline Icon: https://streamlinehq.com
  </desc>
  <title>logo-discord</title>
  <g>
    <path d="M22.8525 6.855h-1.1400000000000001V4.5675h-1.1475V3.4275H19.424999999999997V2.2874999999999996h-2.2874999999999996V1.1400000000000001h-2.2800000000000002V0h-5.715v1.1400000000000001H6.855v1.1475H4.5675v1.1400000000000001H3.4275v1.1400000000000001H2.2800000000000002v2.2874999999999996H1.1400000000000001v2.2874999999999996H0v5.715h1.1400000000000001v2.2874999999999996h1.1400000000000001v2.2800000000000002h1.1475v1.1475h1.1400000000000001v1.1400000000000001h2.2874999999999996v1.1475h2.2874999999999996V24h5.715v-1.1400000000000001h2.2800000000000002v-1.1475h2.2874999999999996v-1.1400000000000001h1.1400000000000001V19.424999999999997h1.1475v-2.2800000000000002h1.1400000000000001v-2.2874999999999996H24v-5.715h-1.1475Zm-1.1400000000000001 9.1425h-1.1475v1.1475H19.424999999999997v1.1400000000000001h-1.1400000000000001v1.1400000000000001h-4.574999999999999v-1.1400000000000001h3.4275v-2.2874999999999996H6.855v2.2874999999999996h3.4275v1.1400000000000001h-4.574999999999999v-1.1400000000000001H4.5675v-1.1400000000000001H3.4275v-1.1475H2.2800000000000002v-5.715h1.1475v-2.2800000000000002h1.1400000000000001V6.855h1.1400000000000001V5.715h4.574999999999999v1.1400000000000001h3.4275V5.715h4.574999999999999v1.1400000000000001h1.1400000000000001v1.1475h1.1400000000000001v2.2800000000000002h1.1475Z" fill="#000000" stroke-width="0.75"></path>
    <path d="M13.71 10.2825h2.2874999999999996v2.2874999999999996h-2.2874999999999996Z" fill="#000000" stroke-width="0.75"></path>
    <path d="M7.995 10.2825h2.2874999999999996v2.2874999999999996h-2.2874999999999996Z" fill="#000000" stroke-width="0.75"></path>
  </g>
</svg>