<svg xmlns="http://www.w3.org/2000/svg" viewBox="0 0 24 24" id="Photography-File-Picture--Streamline-Pixel" height="24" width="24">
  <g>
    <path d="M20.56875 4.5675h-1.1400000000000001V3.4275h-1.1400000000000001V2.2800000000000002h-1.1475V1.1400000000000001h-1.1400000000000001V0H2.28375v24h19.4325V5.715h-1.1475Zm0 18.285H3.4312500000000004V1.1400000000000001h11.4225v5.715h5.715Z" fill="#000000" stroke-width="0.75"></path>
    <path d="m14.85375 14.857499999999998 0 -1.1475 -1.1400000000000001 0 0 1.1475 -6.855 0 0 -1.1475 -1.1475 0 0 -7.995 -1.1400000000000001 0 0 12.57 1.1400000000000001 0 0 -2.2874999999999996 12.5775 0 0 2.2874999999999996 1.1400000000000001 0 0 -10.290000000000001 -1.1400000000000001 0 0 5.715 -1.1475 0 0 1.1475 -2.2874999999999996 0z" fill="#000000" stroke-width="0.75"></path>
    <path d="M5.71125 18.285h12.5775v1.1400000000000001H5.71125Z" fill="#000000" stroke-width="0.75"></path>
    <path d="M16.00125 12.57h1.1400000000000001v1.1400000000000001h-1.1400000000000001Z" fill="#000000" stroke-width="0.75"></path>
    <path d="M13.713750000000001 11.43h2.2874999999999996v1.1400000000000001h-2.2874999999999996Z" fill="#000000" stroke-width="0.75"></path>
    <path d="M12.57375 12.57h1.1400000000000001v1.1400000000000001h-1.1400000000000001Z" fill="#000000" stroke-width="0.75"></path>
    <path d="M11.42625 11.43h1.1475v1.1400000000000001h-1.1475Z" fill="#000000" stroke-width="0.75"></path>
    <path d="M9.14625 10.2825h2.2800000000000002v1.1475h-2.2800000000000002Z" fill="#000000" stroke-width="0.75"></path>
    <path d="M7.998749999999999 11.43h1.1475v1.1400000000000001h-1.1475Z" fill="#000000" stroke-width="0.75"></path>
    <path d="M6.85875 12.57h1.1400000000000001v1.1400000000000001h-1.1400000000000001Z" fill="#000000" stroke-width="0.75"></path>
    <path d="M6.85875 6.855h2.2874999999999996v2.2874999999999996h-2.2874999999999996Z" fill="#000000" stroke-width="0.75"></path>
    <path d="M5.71125 4.5675h6.862500000000001v1.1475h-6.862500000000001Z" fill="#000000" stroke-width="0.75"></path>
  </g>
</svg>