<svg xmlns="http://www.w3.org/2000/svg" viewBox="0 0 24 24" id="Logo-Social-Media-Old-Instagram--Streamline-Pixel" height="24" width="24">
  <g>
    <path d="m22.8525 2.2874999999999996 0 5.715 -7.995 0 0 1.1400000000000001 1.1400000000000001 0 0 1.1400000000000001 1.1400000000000001 0 0 -1.1400000000000001 5.715 0 0 12.57 1.1475 0 0 -19.424999999999997 -1.1475 0z" fill="#000000" stroke-width="0.75"></path>
    <path d="M21.7125 21.7125h1.1400000000000001v1.1475h-1.1400000000000001Z" fill="#000000" stroke-width="0.75"></path>
    <path d="M21.7125 1.1400000000000001h1.1400000000000001v1.1475h-1.1400000000000001Z" fill="#000000" stroke-width="0.75"></path>
    <path d="M2.2800000000000002 22.86h19.4325V24H2.2800000000000002Z" fill="#000000" stroke-width="0.75"></path>
    <path d="M19.424999999999997 3.4275h1.1400000000000001v2.2874999999999996H19.424999999999997Z" fill="#000000" stroke-width="0.75"></path>
    <path d="M17.137500000000003 2.2874999999999996h2.2874999999999996v1.1400000000000001h-2.2874999999999996Z" fill="#000000" stroke-width="0.75"></path>
    <path d="M17.137500000000003 10.2825h1.1475v5.715h-1.1475Z" fill="#000000" stroke-width="0.75"></path>
    <path d="M17.137500000000003 5.715h2.2874999999999996v1.1400000000000001h-2.2874999999999996Z" fill="#000000" stroke-width="0.75"></path>
    <path d="M15.997499999999999 15.997499999999999h1.1400000000000001v1.1475h-1.1400000000000001Z" fill="#000000" stroke-width="0.75"></path>
    <path d="M15.997499999999999 3.4275h1.1400000000000001v2.2874999999999996h-1.1400000000000001Z" fill="#000000" stroke-width="0.75"></path>
    <path d="M14.857499999999998 17.145h1.1400000000000001v1.1400000000000001h-1.1400000000000001Z" fill="#000000" stroke-width="0.75"></path>
    <path d="M9.1425 11.43h-1.1475v3.4275h1.1475v1.1400000000000001h1.1400000000000001v1.1475h3.4275v-1.1475h1.1475v-1.1400000000000001h1.1400000000000001v-3.4275h-1.1400000000000001v-1.1475h-1.1475v-1.1400000000000001h-3.4275v1.1400000000000001h-1.1400000000000001Zm2.2800000000000002 0h2.2874999999999996v2.2874999999999996h-1.1400000000000001v-1.1475h-1.1475Z" fill="#000000" stroke-width="0.75"></path>
    <path d="M9.1425 6.855h5.715v1.1475h-5.715Z" fill="#000000" stroke-width="0.75"></path>
    <path d="M9.1425 18.285h5.715v1.1400000000000001h-5.715Z" fill="#000000" stroke-width="0.75"></path>
    <path d="M7.995 17.145h1.1475v1.1400000000000001h-1.1475Z" fill="#000000" stroke-width="0.75"></path>
    <path d="M6.855 15.997499999999999h1.1400000000000001v1.1475H6.855Z" fill="#000000" stroke-width="0.75"></path>
    <path d="M5.7075000000000005 10.2825h1.1475v5.715H5.7075000000000005Z" fill="#000000" stroke-width="0.75"></path>
    <path d="M1.1400000000000001 21.7125h1.1400000000000001v1.1475H1.1400000000000001Z" fill="#000000" stroke-width="0.75"></path>
    <path d="M1.1400000000000001 9.1425h1.1400000000000001v1.1400000000000001h3.4275v-1.1400000000000001h1.1475v1.1400000000000001h1.1400000000000001v-1.1400000000000001h1.1475v-1.1400000000000001h-1.1475V1.1400000000000001h13.7175V0H2.2800000000000002v1.1400000000000001H1.1400000000000001v1.1475h1.1400000000000001v5.715H1.1400000000000001V2.2874999999999996H0v19.424999999999997h1.1400000000000001ZM5.7075000000000005 1.1400000000000001h1.1475v6.862500000000001H5.7075000000000005Zm-2.2800000000000002 0h1.1400000000000001v6.862500000000001H3.4275Z" fill="#000000" stroke-width="0.75"></path>
  </g>
</svg>