<svg xmlns="http://www.w3.org/2000/svg" viewBox="0 0 24 24" id="Hand--Streamline-Pixel" height="24" width="24">
  <desc>
    Hand Streamline Icon: https://streamlinehq.com
  </desc>
  <title>hand</title>
  <g>
    <path d="M21.138749999999998 5.715h1.1475v9.1425h-1.1475Z" fill="#000000" stroke-width="0.75"></path>
    <path d="M19.99875 14.857499999999998h1.1400000000000001v3.4275h-1.1400000000000001Z" fill="#000000" stroke-width="0.75"></path>
    <path d="M18.85875 20.572499999999998h-10.290000000000001v-2.2874999999999996H7.425000000000001v2.2874999999999996H6.28125V24h14.857499999999998v-3.4275h-1.1400000000000001v-2.2874999999999996h-1.1400000000000001Zm0 2.2874999999999996H16.575000000000003v-1.1475h2.2874999999999996Z" fill="#000000" stroke-width="0.75"></path>
    <path d="m17.71125 10.2825 1.1475 0 0 -4.5675 2.2800000000000002 0 0 -1.1400000000000001 -2.2800000000000002 0 0 -1.1475 -1.1475 0 0 6.855z" fill="#000000" stroke-width="0.75"></path>
    <path d="m14.283750000000001 10.2825 1.1400000000000001 0 0 -6.855 2.2874999999999996 0 0 -1.1400000000000001 -2.2874999999999996 0 0 -1.1475 -1.1400000000000001 0 0 9.1425z" fill="#000000" stroke-width="0.75"></path>
    <path d="M13.143749999999999 13.7175h1.1400000000000001v2.2800000000000002h-1.1400000000000001Z" fill="#000000" stroke-width="0.75"></path>
    <path d="M11.99625 0h2.2874999999999996v1.1400000000000001h-2.2874999999999996Z" fill="#000000" stroke-width="0.75"></path>
    <path d="M11.99625 12.57h1.1475v1.1475h-1.1475Z" fill="#000000" stroke-width="0.75"></path>
    <path d="m10.85625 10.2825 1.1400000000000001 0 0 -9.1425 -3.4275 0 0 1.1475 2.2874999999999996 0 0 7.995z" fill="#000000" stroke-width="0.75"></path>
    <path d="M8.568750000000001 11.43h3.4275v1.1400000000000001h-3.4275Z" fill="#000000" stroke-width="0.75"></path>
    <path d="M6.28125 15.997499999999999h1.1475v2.2874999999999996h-1.1475Z" fill="#000000" stroke-width="0.75"></path>
    <path d="m8.568750000000001 11.43 0 -9.1425 -1.1400000000000001 0 0 7.995 -1.1475 0 0 1.1475 2.2874999999999996 0z" fill="#000000" stroke-width="0.75"></path>
    <path d="M5.14125 14.857499999999998h1.1400000000000001v1.1400000000000001h-1.1400000000000001Z" fill="#000000" stroke-width="0.75"></path>
    <path d="M5.14125 9.1425h1.1400000000000001v1.1400000000000001h-1.1400000000000001Z" fill="#000000" stroke-width="0.75"></path>
    <path d="M4.00125 13.7175h1.1400000000000001v1.1400000000000001h-1.1400000000000001Z" fill="#000000" stroke-width="0.75"></path>
    <path d="M2.8537500000000002 8.0025h2.2874999999999996v1.1400000000000001h-2.2874999999999996Z" fill="#000000" stroke-width="0.75"></path>
    <path d="M2.8537500000000002 12.57h1.1475v1.1475h-1.1475Z" fill="#000000" stroke-width="0.75"></path>
    <path d="M1.71375 9.1425h1.1400000000000001v3.4275h-1.1400000000000001Z" fill="#000000" stroke-width="0.75"></path>
  </g>
</svg>