<svg xmlns="http://www.w3.org/2000/svg" viewBox="0 0 24 24" id="Content-Files-Book--Streamline-Pixel" height="24" width="24">
  <desc>
    Content Files Book Streamline Icon: https://streamlinehq.com
  </desc>
  <title>content-files-book</title>
  <g>
    <path d="m2.8575 1.1400000000000001 18.285 0 0 1.1475 -17.137500000000003 0 0 1.1400000000000001 17.137500000000003 0 0 1.1475 -18.285 0 0 1.1400000000000001 1.1475 0 0 17.145 -1.1475 0 0 1.1400000000000001 19.4325 0 0 -1.1400000000000001 -17.145 0 0 -17.145 17.145 0 0 17.145 1.1400000000000001 0 0 -18.285 -1.1400000000000001 0 0 -3.435 1.1400000000000001 0 0 -1.1400000000000001L2.8575 0l0 1.1400000000000001z" fill="#000000" stroke-width="0.75"></path>
    <path d="M17.715 18.285h1.1475v1.1475h-1.1475Z" fill="#000000" stroke-width="0.75"></path>
    <path d="m18.862499999999997 9.1425 -1.1475 0 0 -1.1400000000000001 -7.995 0 0 1.1400000000000001 -1.1475 0 0 1.1475 -1.1400000000000001 0 0 7.995 1.1400000000000001 0 0 -4.5675 1.1475 0 0 -1.1475 1.1400000000000001 0 0 -1.1400000000000001 5.715 0 0 1.1400000000000001 1.1400000000000001 0 0 1.1475 1.1475 0 0 4.5675 1.1400000000000001 0 0 -7.995 -1.1400000000000001 0 0 -1.1475z" fill="#000000" stroke-width="0.75"></path>
    <path d="M9.72 19.4325h7.995v1.1400000000000001H9.72Z" fill="#000000" stroke-width="0.75"></path>
    <path d="M15.4275 15.997499999999999h1.1475v1.1475h-1.1475Z" fill="#000000" stroke-width="0.75"></path>
    <path d="M15.4275 13.7175h1.1475v1.1400000000000001h-1.1475Z" fill="#000000" stroke-width="0.75"></path>
    <path d="M12 17.145h3.4275v1.1400000000000001H12Z" fill="#000000" stroke-width="0.75"></path>
    <path d="M10.86 15.997499999999999H12v1.1475h-1.1400000000000001Z" fill="#000000" stroke-width="0.75"></path>
    <path d="M10.86 13.7175H12v1.1400000000000001h-1.1400000000000001Z" fill="#000000" stroke-width="0.75"></path>
    <path d="M8.5725 18.285h1.1475v1.1475h-1.1475Z" fill="#000000" stroke-width="0.75"></path>
    <path d="M1.7175 21.7125h1.1400000000000001v1.1475H1.7175Z" fill="#000000" stroke-width="0.75"></path>
    <path d="M1.7175 1.1400000000000001h1.1400000000000001v1.1475H1.7175Z" fill="#000000" stroke-width="0.75"></path>
    <path d="m1.7175 4.574999999999999 1.1400000000000001 0 0 -1.1475 -1.1400000000000001 0 0 -1.1400000000000001 -1.1475 0 0 19.424999999999997 1.1475 0 0 -17.137500000000003z" fill="#000000" stroke-width="0.75"></path>
  </g>
</svg>