<svg xmlns="http://www.w3.org/2000/svg" viewBox="0 0 24 24" id="Interface-Essential-Setting-Slide--Streamline-Pixel" height="24" width="24">
  <g>
    <path d="m19.42875 6.855 0 -2.2800000000000002 3.4275 0 0 -1.1475 -3.4275 0 0 -2.2874999999999996 -1.1400000000000001 0 0 5.715 1.1400000000000001 0z" fill="#000000" stroke-width="0.75"></path>
    <path d="m19.42875 22.86 0 -2.2874999999999996 3.4275 0 0 -1.1475 -3.4275 0 0 -2.2800000000000002 -1.1400000000000001 0 0 5.715 1.1400000000000001 0z" fill="#000000" stroke-width="0.75"></path>
    <path d="m22.856250000000003 11.43 -15.997499999999999 0 0 -2.2874999999999996 -1.1400000000000001 0 0 -1.1400000000000001 -1.1475 0 0 1.1400000000000001 -1.1400000000000001 0 0 2.2874999999999996 -2.2874999999999996 0 0 1.1400000000000001 2.2874999999999996 0 0 2.2874999999999996 1.1400000000000001 0 0 1.1400000000000001 1.1475 0 0 -1.1400000000000001 1.1400000000000001 0 0 -2.2874999999999996 15.997499999999999 0 0 -1.1400000000000001z" fill="#000000" stroke-width="0.75"></path>
    <path d="M17.14125 22.86h1.1475V24h-1.1475Z" fill="#000000" stroke-width="0.75"></path>
    <path d="M17.14125 15.997499999999999h1.1475v1.1475h-1.1475Z" fill="#000000" stroke-width="0.75"></path>
    <path d="M17.14125 6.855h1.1475v1.1475h-1.1475Z" fill="#000000" stroke-width="0.75"></path>
    <path d="M17.14125 0h1.1475v1.1400000000000001h-1.1475Z" fill="#000000" stroke-width="0.75"></path>
    <path d="m17.14125 17.145 -1.1400000000000001 0 0 2.2800000000000002 -14.857499999999998 0 0 1.1475 14.857499999999998 0 0 2.2874999999999996 1.1400000000000001 0 0 -5.715z" fill="#000000" stroke-width="0.75"></path>
    <path d="m16.00125 3.4275 -14.857499999999998 0 0 1.1475 14.857499999999998 0 0 2.2800000000000002 1.1400000000000001 0 0 -5.715 -1.1400000000000001 0 0 2.2874999999999996z" fill="#000000" stroke-width="0.75"></path>
  </g>
</svg>