<?xml version="1.0" encoding="UTF-8"?>
<svg id="Interface-Essential-Translate--Streamline-Pixel" xmlns="http://www.w3.org/2000/svg" viewBox="0 0 24 24" height="24" width="24">
  <defs>
    <style>
      .cls-1 {
        fill: #fff;
      }

      .cls-2 {
        fill: #159b6d;
      }
    </style>
  </defs>
  <path d="M11.43,2.29h1.15v7.99h-1.15V2.29Z"/>
  <path d="M10.29,10.28h1.14v1.15h-1.14v-1.15Z"/>
  <path d="M10.29,1.14h1.14v1.15h-1.14v-1.15Z"/>
  <path d="M21.71,5.72h1.14v3.43h-1.14v-3.43Z"/>
  <path d="M20.57,4.57h1.15v1.15h-1.15v-1.15Z"/>
  <path d="M2.29,11.43h8v1.14H2.29v-1.14Z"/>
  <path d="M8,6.85h-3.43v-3.43h-1.15v6.85h1.15v-2.29h3.43v2.29h1.14V3.43h-1.14v3.43Z"/>
  <path d="M4.58,2.29h3.43v1.14h-3.43v-1.14Z"/>
  <path d="M2.29,0h8v1.14H2.29V0Z"/>
  <path d="M16,1.14v1.15h-1.15v1.14h-1.14v1.14h1.14v1.15h1.15v1.14h1.14v-2.29h3.43v-1.14h-3.43V1.14s-1.14,0-1.14,0Z"/>
  <path d="M1.15,10.28h1.14v1.15h-1.14v-1.15Z"/>
  <path d="M1.15,1.14h1.14v1.15h-1.14v-1.15Z"/>
  <path d="M0,2.29h1.15v7.99H0V2.29Z"/>
  <path d="M7.99,22.86v-1.15h1.15v-1.14h1.14v-1.15h-1.14v-1.14h-1.15v-1.14h-1.14v2.28h-3.43v1.15h3.43v2.29s1.14,0,1.14,0Z"/>
  <path d="M2.28,18.28h1.15v1.14h-1.15v-1.14Z"/>
  <path d="M1.14,14.86h1.14v3.43h-1.14v-3.43Z"/>
  <polygon class="cls-2" points="22.85 13.72 22.85 12.57 21.71 12.57 21.71 11.43 13.71 11.43 13.71 12.57 12.57 12.57 12.57 13.72 11.43 13.72 11.43 21.71 12.57 21.71 12.57 22.86 13.71 22.86 13.71 24 21.71 24 21.71 22.86 22.85 22.86 22.85 21.71 24 21.71 24 13.72 22.85 13.72"/>
  <polygon class="cls-1" points="20.57 14.85 19.42 14.85 19.42 15.99 18.29 15.99 18.29 17.14 17.14 17.14 17.14 18.28 15.99 18.28 15.99 17.14 14.84 17.14 14.84 19.42 15.99 19.42 15.99 20.57 17.14 20.57 17.14 19.42 18.29 19.42 18.29 18.28 19.43 18.28 19.43 17.14 20.57 17.14 20.57 14.85"/>
</svg>