<?xml version="1.0" encoding="UTF-8"?>
<svg id="_레이어_1" data-name="레이어_1" xmlns="http://www.w3.org/2000/svg" viewBox="0 0 16 16">
  <defs>
    <style>
      .cls-1 {
        fill: #e8b5ac;
      }

      .cls-2 {
        fill: #f3d8c5;
      }

      .cls-3 {
        fill: #f3f2c0;
      }

      .cls-4 {
        fill: #5c4e92;
      }

      .cls-5 {
        fill: #766daa;
      }

      .cls-6 {
        fill: #ddd5de;
      }
    </style>
  </defs>
  <polygon class="cls-4" points="9.33 2 9.33 3.33 8 3.33 6.67 3.33 6.67 2 5.33 2 5.33 3.33 5.33 4.67 6.67 4.67 8 4.67 9.33 4.67 10.67 4.67 10.67 3.33 10.67 2 9.33 2"/>
  <polygon class="cls-1" points="2.67 3.33 1.33 3.33 1.33 4.67 1.33 6 2.67 6 4 6 4 4.67 4 3.33 2.67 3.33"/>
  <polygon class="cls-1" points="13.33 3.33 12 3.33 12 4.67 12 6 13.33 6 14.67 6 14.67 4.67 14.67 3.33 13.33 3.33"/>
  <polygon class="cls-6" points="9.33 4.67 8 4.67 6.67 4.67 5.33 4.67 5.33 6 5.33 7.33 5.33 8.67 6.67 8.67 8 8.67 9.33 8.67 10.67 8.67 10.67 7.33 10.67 6 10.67 4.67 9.33 4.67"/>
  <rect class="cls-4" x="2.67" y="10" width="1.33" height="1.33"/>
  <rect class="cls-4" x="12" y="10" width="1.33" height="1.33"/>
  <polygon class="cls-4" points="0 2 0 3.33 0 4.67 0 6 0 7.33 0 8.67 0 10 0 11.33 0 12.67 0 14 1.33 14 1.33 12.67 1.33 11.33 1.33 10 1.33 8.67 1.33 7.33 1.33 6 1.33 4.67 1.33 3.33 1.33 2 0 2"/>
  <polygon class="cls-2" points="2.67 12.67 1.33 12.67 1.33 14 2.67 14 4 14 4 12.67 2.67 12.67"/>
  <path class="cls-3" d="M12,3.33h2.67v-1.33h-4v6.67h-5.33V2H1.33v1.33h2.67v2.67H1.33v6.67h2.67v1.33h8v-1.33h2.67v-6.67h-2.67v-2.67ZM2.67,11.33v-1.33h1.33v1.33h-1.33ZM13.33,11.33h-1.33v-1.33h1.33v1.33Z"/>
  <polygon class="cls-2" points="13.33 12.67 12 12.67 12 14 13.33 14 14.67 14 14.67 12.67 13.33 12.67"/>
  <polygon class="cls-4" points="14.67 2 14.67 3.33 14.67 4.67 14.67 6 14.67 7.33 14.67 8.67 14.67 10 14.67 11.33 14.67 12.67 14.67 14 16 14 16 12.67 16 11.33 16 10 16 8.67 16 7.33 16 6 16 4.67 16 3.33 16 2 14.67 2"/>
  <polygon class="cls-4" points="2.67 14 1.33 14 1.33 15.33 2.67 15.33 4 15.33 4 14 2.67 14"/>
  <polygon class="cls-5" points="10.67 14 9.33 14 8 14 6.67 14 5.33 14 4 14 4 15.33 5.33 15.33 6.67 15.33 8 15.33 9.33 15.33 10.67 15.33 12 15.33 12 14 10.67 14"/>
  <polygon class="cls-4" points="13.33 14 12 14 12 15.33 13.33 15.33 14.67 15.33 14.67 14 13.33 14"/>
  <rect class="cls-4" x="1.33" y=".67" width="4" height="1.33"/>
  <rect class="cls-4" x="10.67" y=".67" width="4" height="1.33"/>
</svg>