<?xml version="1.0" encoding="UTF-8"?>
<svg id="_레이어_1" data-name="레이어_1" xmlns="http://www.w3.org/2000/svg" viewBox="0 0 16 16">
  <defs>
    <style>
      .cls-1 {
        fill: #e8b5ac;
      }

      .cls-2 {
        fill: #f3d8c5;
      }

      .cls-3 {
        fill: #f4f2d3;
      }

      .cls-4 {
        fill: #32ccbc;
      }

      .cls-5 {
        fill: #9deadd;
      }
    </style>
  </defs>
  <g>
    <path class="cls-3" d="M12,2.67h2.67v-1.33h-4v6.67h-5.33V1.33H1.33v1.33h2.67v2.67H1.33v6.67h0v1.33h0v1.33h13.33V5.33h-2.67v-2.67ZM2.67,9.33h1.33v1.33h-1.33v-1.33ZM13.33,9.33v1.33h-1.33v-1.33h1.33Z"/>
    <polygon class="cls-4" points="9.33 1.33 9.33 2.67 8 2.67 6.67 2.67 6.67 1.33 5.33 1.33 5.33 2.67 5.33 4 6.67 4 8 4 9.33 4 10.67 4 10.67 2.67 10.67 1.33 9.33 1.33"/>
    <polygon class="cls-1" points="2.67 2.67 1.33 2.67 1.33 4 1.33 5.33 2.67 5.33 4 5.33 4 4 4 2.67 2.67 2.67"/>
    <polygon class="cls-1" points="13.33 2.67 12 2.67 12 4 12 5.33 13.33 5.33 14.67 5.33 14.67 4 14.67 2.67 13.33 2.67"/>
    <polygon class="cls-5" points="9.33 4 8 4 6.67 4 5.33 4 5.33 5.33 5.33 6.67 5.33 8 6.67 8 8 8 9.33 8 10.67 8 10.67 6.67 10.67 5.33 10.67 4 9.33 4"/>
    <polygon class="cls-4" points="0 1.33 0 2.81 0 4.3 0 5.78 0 7.26 0 8.74 0 10.22 0 11.7 0 13.19 0 14.67 1.33 14.67 1.33 13.19 1.33 11.7 1.33 10.22 1.33 8.74 1.33 7.26 1.33 5.78 1.33 4.3 1.33 2.81 1.33 1.33 0 1.33"/>
    <polygon class="cls-4" points="14.67 1.33 14.67 2.81 14.67 4.3 14.67 5.78 14.67 7.26 14.67 8.74 14.67 10.22 14.67 11.7 14.67 13.19 14.67 14.67 16 14.67 16 13.19 16 11.7 16 10.22 16 8.74 16 7.26 16 5.78 16 4.3 16 2.81 16 1.33 14.67 1.33"/>
    <rect class="cls-4" x="1.33" width="4" height="1.33"/>
    <rect class="cls-4" x="10.67" width="4" height="1.33"/>
  </g>
  <rect class="cls-4" x="1.33" y="14.67" width="13.33" height="1.33"/>
  <rect class="cls-4" x="2.67" y="9.32" width="1.33" height="2.68"/>
  <rect class="cls-4" x="12" y="9.33" width="1.33" height="2.68"/>
  <rect class="cls-2" x="1.33" y="13.33" width="2.67" height="1.33"/>
  <rect class="cls-2" x="12" y="13.33" width="2.67" height="1.33"/>
</svg>